<svg width="386" height="49" viewBox="0 0 386 49" fill="none" xmlns="http://www.w3.org/2000/svg">
<path d="M27.2955 14.8409C27.1136 13.0076 26.3333 11.5833 24.9545 10.5682C23.5758 9.55303 21.7045 9.04545 19.3409 9.04545C17.7348 9.04545 16.3788 9.27273 15.2727 9.72727C14.1667 10.1667 13.3182 10.7803 12.7273 11.5682C12.1515 12.3561 11.8636 13.25 11.8636 14.25C11.8333 15.0833 12.0076 15.8106 12.3864 16.4318C12.7803 17.053 13.3182 17.5909 14 18.0455C14.6818 18.4848 15.4697 18.8712 16.3636 19.2045C17.2576 19.5227 18.2121 19.7955 19.2273 20.0227L23.4091 21.0227C25.4394 21.4773 27.303 22.0833 29 22.8409C30.697 23.5985 32.1667 24.5303 33.4091 25.6364C34.6515 26.7424 35.6136 28.0455 36.2955 29.5455C36.9924 31.0455 37.3485 32.7652 37.3636 34.7045C37.3485 37.553 36.6212 40.0227 35.1818 42.1136C33.7576 44.1894 31.697 45.803 29 46.9545C26.3182 48.0909 23.0833 48.6591 19.2955 48.6591C15.5379 48.6591 12.2652 48.0833 9.47727 46.9318C6.70455 45.7803 4.53788 44.0758 2.97727 41.8182C1.43182 39.5455 0.621212 36.7348 0.545455 33.3864H10.0682C10.1742 34.947 10.6212 36.25 11.4091 37.2955C12.2121 38.3258 13.2803 39.1061 14.6136 39.6364C15.9621 40.1515 17.4848 40.4091 19.1818 40.4091C20.8485 40.4091 22.2955 40.1667 23.5227 39.6818C24.7652 39.197 25.7273 38.5227 26.4091 37.6591C27.0909 36.7955 27.4318 35.803 27.4318 34.6818C27.4318 33.6364 27.1212 32.7576 26.5 32.0455C25.8939 31.3333 25 30.7273 23.8182 30.2273C22.6515 29.7273 21.2197 29.2727 19.5227 28.8636L14.4545 27.5909C10.5303 26.6364 7.43182 25.1439 5.15909 23.1136C2.88636 21.0833 1.75758 18.3485 1.77273 14.9091C1.75758 12.0909 2.50758 9.62879 4.02273 7.52273C5.55303 5.41667 7.65152 3.77273 10.3182 2.59091C12.9848 1.40909 16.0152 0.81818 19.4091 0.81818C22.8636 0.81818 25.8788 1.40909 28.4545 2.59091C31.0455 3.77273 33.0606 5.41667 34.5 7.52273C35.9394 9.62879 36.6818 12.0682 36.7273 14.8409H27.2955ZM59.7102 48.6818C56.1193 48.6818 53.0284 47.9545 50.4375 46.5C47.8617 45.0303 45.8769 42.9545 44.483 40.2727C43.089 37.5758 42.392 34.3864 42.392 30.7045C42.392 27.1136 43.089 23.9621 44.483 21.25C45.8769 18.5379 47.839 16.4242 50.3693 14.9091C52.9148 13.3939 55.8996 12.6364 59.3239 12.6364C61.6269 12.6364 63.7708 13.0076 65.7557 13.75C67.7557 14.4773 69.4981 15.5758 70.983 17.0455C72.483 18.5152 73.6496 20.3636 74.483 22.5909C75.3163 24.803 75.733 27.3939 75.733 30.3636V33.0227H46.2557V27.0227H66.6193C66.6193 25.6288 66.3163 24.3939 65.7102 23.3182C65.1042 22.2424 64.2633 21.4015 63.1875 20.7955C62.1269 20.1742 60.892 19.8636 59.483 19.8636C58.0133 19.8636 56.7102 20.2045 55.5739 20.8864C54.4527 21.553 53.5739 22.4545 52.9375 23.5909C52.3011 24.7121 51.9754 25.9621 51.9602 27.3409V33.0455C51.9602 34.7727 52.2784 36.2652 52.9148 37.5227C53.5663 38.7803 54.483 39.75 55.6648 40.4318C56.8466 41.1136 58.2481 41.4545 59.8693 41.4545C60.9451 41.4545 61.9299 41.303 62.8239 41C63.7178 40.697 64.483 40.2424 65.1193 39.6364C65.7557 39.0303 66.2405 38.2879 66.5739 37.4091L75.5284 38C75.0739 40.1515 74.142 42.0303 72.733 43.6364C71.339 45.2273 69.536 46.4697 67.3239 47.3636C65.1269 48.2424 62.589 48.6818 59.7102 48.6818ZM91.733 27.8182V48H82.0511V13.0909H91.2784V19.25H91.6875C92.4602 17.2197 93.7557 15.6136 95.5739 14.4318C97.392 13.2348 99.5966 12.6364 102.188 12.6364C104.612 12.6364 106.725 13.1667 108.528 14.2273C110.331 15.2879 111.733 16.803 112.733 18.7727C113.733 20.7273 114.233 23.0606 114.233 25.7727V48H104.551V27.5C104.566 25.3636 104.021 23.697 102.915 22.5C101.809 21.2879 100.286 20.6818 98.3466 20.6818C97.0436 20.6818 95.892 20.9621 94.892 21.5227C93.9072 22.0833 93.1345 22.9015 92.5739 23.9773C92.0284 25.0379 91.7481 26.3182 91.733 27.8182ZM131.818 48.6591C129.591 48.6591 127.606 48.2727 125.864 47.5C124.121 46.7121 122.742 45.553 121.727 44.0227C120.727 42.4773 120.227 40.553 120.227 38.25C120.227 36.3106 120.583 34.6818 121.295 33.3636C122.008 32.0455 122.977 30.9848 124.205 30.1818C125.432 29.3788 126.826 28.7727 128.386 28.3636C129.962 27.9545 131.614 27.6667 133.341 27.5C135.371 27.2879 137.008 27.0909 138.25 26.9091C139.492 26.7121 140.394 26.4242 140.955 26.0455C141.515 25.6667 141.795 25.1061 141.795 24.3636V24.2273C141.795 22.7879 141.341 21.6742 140.432 20.8864C139.538 20.0985 138.265 19.7045 136.614 19.7045C134.871 19.7045 133.485 20.0909 132.455 20.8636C131.424 21.6212 130.742 22.5758 130.409 23.7273L121.455 23C121.909 20.8788 122.803 19.0455 124.136 17.5C125.47 15.9394 127.189 14.7424 129.295 13.9091C131.417 13.0606 133.871 12.6364 136.659 12.6364C138.598 12.6364 140.455 12.8636 142.227 13.3182C144.015 13.7727 145.598 14.4773 146.977 15.4318C148.371 16.3864 149.47 17.6136 150.273 19.1136C151.076 20.5985 151.477 22.3788 151.477 24.4545V48H142.295V43.1591H142.023C141.462 44.25 140.712 45.2121 139.773 46.0455C138.833 46.8636 137.705 47.5076 136.386 47.9773C135.068 48.4318 133.545 48.6591 131.818 48.6591ZM134.591 41.9773C136.015 41.9773 137.273 41.697 138.364 41.1364C139.455 40.5606 140.311 39.7879 140.932 38.8182C141.553 37.8485 141.864 36.75 141.864 35.5227V31.8182C141.561 32.0152 141.144 32.197 140.614 32.3636C140.098 32.5152 139.515 32.6591 138.864 32.7955C138.212 32.9167 137.561 33.0303 136.909 33.1364C136.258 33.2273 135.667 33.3106 135.136 33.3864C134 33.553 133.008 33.8182 132.159 34.1818C131.311 34.5455 130.652 35.0379 130.182 35.6591C129.712 36.2652 129.477 37.0227 129.477 37.9318C129.477 39.25 129.955 40.2576 130.909 40.9545C131.879 41.6364 133.106 41.9773 134.591 41.9773ZM174.761 48.6818C171.186 48.6818 168.11 47.9242 165.534 46.4091C162.973 44.8788 161.004 42.7576 159.625 40.0455C158.261 37.3333 157.58 34.2121 157.58 30.6818C157.58 27.1061 158.269 23.9697 159.648 21.2727C161.042 18.5606 163.019 16.447 165.58 14.9318C168.14 13.4015 171.186 12.6364 174.716 12.6364C177.761 12.6364 180.428 13.1894 182.716 14.2955C185.004 15.4015 186.814 16.9545 188.148 18.9545C189.481 20.9545 190.216 23.303 190.352 26H181.216C180.958 24.2576 180.277 22.8561 179.17 21.7955C178.08 20.7197 176.648 20.1818 174.875 20.1818C173.375 20.1818 172.064 20.5909 170.943 21.4091C169.837 22.2121 168.973 23.3864 168.352 24.9318C167.731 26.4773 167.42 28.3485 167.42 30.5455C167.42 32.7727 167.723 34.6667 168.33 36.2273C168.951 37.7879 169.822 38.9773 170.943 39.7955C172.064 40.6136 173.375 41.0227 174.875 41.0227C175.981 41.0227 176.973 40.7955 177.852 40.3409C178.746 39.8864 179.481 39.2273 180.057 38.3636C180.648 37.4848 181.034 36.4318 181.216 35.2045H190.352C190.201 37.8712 189.473 40.2197 188.17 42.25C186.883 44.2652 185.102 45.8409 182.83 46.9773C180.557 48.1136 177.867 48.6818 174.761 48.6818ZM221.983 14.8409C221.801 13.0076 221.021 11.5833 219.642 10.5682C218.263 9.55303 216.392 9.04545 214.028 9.04545C212.422 9.04545 211.066 9.27273 209.96 9.72727C208.854 10.1667 208.006 10.7803 207.415 11.5682C206.839 12.3561 206.551 13.25 206.551 14.25C206.521 15.0833 206.695 15.8106 207.074 16.4318C207.468 17.053 208.006 17.5909 208.688 18.0455C209.369 18.4848 210.157 18.8712 211.051 19.2045C211.945 19.5227 212.9 19.7955 213.915 20.0227L218.097 21.0227C220.127 21.4773 221.991 22.0833 223.688 22.8409C225.384 23.5985 226.854 24.5303 228.097 25.6364C229.339 26.7424 230.301 28.0455 230.983 29.5455C231.68 31.0455 232.036 32.7652 232.051 34.7045C232.036 37.553 231.309 40.0227 229.869 42.1136C228.445 44.1894 226.384 45.803 223.688 46.9545C221.006 48.0909 217.771 48.6591 213.983 48.6591C210.225 48.6591 206.953 48.0833 204.165 46.9318C201.392 45.7803 199.225 44.0758 197.665 41.8182C196.119 39.5455 195.309 36.7348 195.233 33.3864H204.756C204.862 34.947 205.309 36.25 206.097 37.2955C206.9 38.3258 207.968 39.1061 209.301 39.6364C210.65 40.1515 212.172 40.4091 213.869 40.4091C215.536 40.4091 216.983 40.1667 218.21 39.6818C219.453 39.197 220.415 38.5227 221.097 37.6591C221.778 36.7955 222.119 35.803 222.119 34.6818C222.119 33.6364 221.809 32.7576 221.188 32.0455C220.581 31.3333 219.688 30.7273 218.506 30.2273C217.339 29.7273 215.907 29.2727 214.21 28.8636L209.142 27.5909C205.218 26.6364 202.119 25.1439 199.847 23.1136C197.574 21.0833 196.445 18.3485 196.46 14.9091C196.445 12.0909 197.195 9.62879 198.71 7.52273C200.241 5.41667 202.339 3.77273 205.006 2.59091C207.672 1.40909 210.703 0.81818 214.097 0.81818C217.551 0.81818 220.566 1.40909 223.142 2.59091C225.733 3.77273 227.748 5.41667 229.188 7.52273C230.627 9.62879 231.369 12.0682 231.415 14.8409H221.983ZM248.17 27.8182V48H238.489V1.45454H247.898V19.25H248.307C249.095 17.1894 250.367 15.5758 252.125 14.4091C253.883 13.2273 256.087 12.6364 258.739 12.6364C261.163 12.6364 263.277 13.1667 265.08 14.2273C266.898 15.2727 268.307 16.7803 269.307 18.75C270.322 20.7045 270.822 23.0455 270.807 25.7727V48H261.125V27.5C261.14 25.3485 260.595 23.6742 259.489 22.4773C258.398 21.2803 256.867 20.6818 254.898 20.6818C253.58 20.6818 252.413 20.9621 251.398 21.5227C250.398 22.0833 249.61 22.9015 249.034 23.9773C248.473 25.0379 248.186 26.3182 248.17 27.8182ZM294.199 48.6818C290.669 48.6818 287.616 47.9318 285.04 46.4318C282.479 44.9167 280.502 42.8106 279.108 40.1136C277.714 37.4015 277.017 34.2576 277.017 30.6818C277.017 27.0758 277.714 23.9242 279.108 21.2273C280.502 18.5152 282.479 16.4091 285.04 14.9091C287.616 13.3939 290.669 12.6364 294.199 12.6364C297.729 12.6364 300.775 13.3939 303.335 14.9091C305.911 16.4091 307.896 18.5152 309.29 21.2273C310.684 23.9242 311.381 27.0758 311.381 30.6818C311.381 34.2576 310.684 37.4015 309.29 40.1136C307.896 42.8106 305.911 44.9167 303.335 46.4318C300.775 47.9318 297.729 48.6818 294.199 48.6818ZM294.244 41.1818C295.85 41.1818 297.191 40.7273 298.267 39.8182C299.343 38.8939 300.153 37.6364 300.699 36.0455C301.259 34.4545 301.54 32.6439 301.54 30.6136C301.54 28.5833 301.259 26.7727 300.699 25.1818C300.153 23.5909 299.343 22.3333 298.267 21.4091C297.191 20.4848 295.85 20.0227 294.244 20.0227C292.623 20.0227 291.259 20.4848 290.153 21.4091C289.063 22.3333 288.237 23.5909 287.676 25.1818C287.131 26.7727 286.858 28.5833 286.858 30.6136C286.858 32.6439 287.131 34.4545 287.676 36.0455C288.237 37.6364 289.063 38.8939 290.153 39.8182C291.259 40.7273 292.623 41.1818 294.244 41.1818ZM333.585 48.6818C329.994 48.6818 326.903 47.9545 324.312 46.5C321.737 45.0303 319.752 42.9545 318.358 40.2727C316.964 37.5758 316.267 34.3864 316.267 30.7045C316.267 27.1136 316.964 23.9621 318.358 21.25C319.752 18.5379 321.714 16.4242 324.244 14.9091C326.79 13.3939 329.775 12.6364 333.199 12.6364C335.502 12.6364 337.646 13.0076 339.631 13.75C341.631 14.4773 343.373 15.5758 344.858 17.0455C346.358 18.5152 347.525 20.3636 348.358 22.5909C349.191 24.803 349.608 27.3939 349.608 30.3636V33.0227H320.131V27.0227H340.494C340.494 25.6288 340.191 24.3939 339.585 23.3182C338.979 22.2424 338.138 21.4015 337.062 20.7955C336.002 20.1742 334.767 19.8636 333.358 19.8636C331.888 19.8636 330.585 20.2045 329.449 20.8864C328.328 21.553 327.449 22.4545 326.812 23.5909C326.176 24.7121 325.85 25.9621 325.835 27.3409V33.0455C325.835 34.7727 326.153 36.2652 326.79 37.5227C327.441 38.7803 328.358 39.75 329.54 40.4318C330.722 41.1136 332.123 41.4545 333.744 41.4545C334.82 41.4545 335.805 41.303 336.699 41C337.593 40.697 338.358 40.2424 338.994 39.6364C339.631 39.0303 340.116 38.2879 340.449 37.4091L349.403 38C348.949 40.1515 348.017 42.0303 346.608 43.6364C345.214 45.2273 343.411 46.4697 341.199 47.3636C339.002 48.2424 336.464 48.6818 333.585 48.6818ZM384.972 23.0455L376.108 23.5909C375.956 22.8333 375.631 22.1515 375.131 21.5455C374.631 20.9242 373.972 20.4318 373.153 20.0682C372.35 19.6894 371.388 19.5 370.267 19.5C368.767 19.5 367.502 19.8182 366.472 20.4545C365.441 21.0758 364.926 21.9091 364.926 22.9545C364.926 23.7879 365.259 24.4924 365.926 25.0682C366.593 25.6439 367.737 26.1061 369.358 26.4545L375.676 27.7273C379.07 28.4242 381.6 29.5455 383.267 31.0909C384.934 32.6364 385.767 34.6667 385.767 37.1818C385.767 39.4697 385.093 41.4773 383.744 43.2045C382.411 44.9318 380.578 46.2803 378.244 47.25C375.926 48.2045 373.252 48.6818 370.222 48.6818C365.6 48.6818 361.919 47.7197 359.176 45.7955C356.449 43.8561 354.85 41.2197 354.381 37.8864L363.903 37.3864C364.191 38.7955 364.888 39.8712 365.994 40.6136C367.1 41.3409 368.517 41.7045 370.244 41.7045C371.941 41.7045 373.305 41.3788 374.335 40.7273C375.381 40.0606 375.911 39.2045 375.926 38.1591C375.911 37.2803 375.54 36.5606 374.812 36C374.085 35.4242 372.964 34.9848 371.449 34.6818L365.403 33.4773C361.994 32.7955 359.456 31.6136 357.79 29.9318C356.138 28.25 355.312 26.1061 355.312 23.5C355.312 21.2576 355.919 19.3258 357.131 17.7045C358.358 16.0833 360.078 14.8333 362.29 13.9545C364.517 13.0758 367.123 12.6364 370.108 12.6364C374.517 12.6364 377.987 13.5682 380.517 15.4318C383.063 17.2955 384.547 19.8333 384.972 23.0455Z" fill="black"/>
</svg>
